<?xml version="1.0" standalone="no"?>
<!DOCTYPE svg PUBLIC "-//W3C//DTD SVG 20010904//EN"
 "http://www.w3.org/TR/2001/REC-SVG-20010904/DTD/svg10.dtd">
<svg version="1.0" xmlns="http://www.w3.org/2000/svg"
 width="225.000000pt" height="224.000000pt" viewBox="0 0 225.000000 224.000000"
 preserveAspectRatio="xMidYMid meet">

<g transform="translate(0.000000,224.000000) scale(0.100000,-0.100000)"
fill="#000000" stroke="none">
<path d="M1867 2132 c-10 -10 -14 -22 -10 -25 3 -4 -2 -17 -13 -29 l-19 -23
22 18 c12 11 26 32 32 48 12 34 10 35 -12 11z"/>
<path d="M1738 2073 c6 -2 18 -2 25 0 6 3 1 5 -13 5 -14 0 -19 -2 -12 -5z"/>
<path d="M1450 2052 c0 -10 5 -23 10 -28 18 -18 24 -177 10 -259 -7 -41 -16
-75 -19 -75 -3 0 -7 35 -8 77 -2 42 -7 81 -12 86 -5 5 -7 17 -4 26 4 14 3 14
-6 1 -9 -13 -11 -13 -11 3 0 9 -5 17 -11 17 -6 0 -9 -6 -6 -12 3 -7 8 -22 12
-33 7 -20 6 -20 -9 -1 -15 19 -16 19 -16 2 0 -26 -38 -92 -88 -156 -39 -49
-40 -51 -7 -17 20 21 38 37 40 35 9 -9 -37 -155 -64 -202 -37 -64 -104 -133
-161 -165 l-44 -24 23 36 c12 20 20 41 16 47 -3 5 -2 10 2 10 7 0 35 46 51 85
2 6 -20 -17 -50 -50 l-55 -59 0 32 c0 18 3 28 7 22 5 -8 9 -6 14 5 3 9 3 22
-1 27 -3 6 -2 8 4 5 9 -6 38 41 30 49 -10 11 -77 -22 -86 -43 -14 -30 -14 -36
-1 -28 6 3 10 -1 10 -9 0 -10 -6 -13 -15 -10 -9 4 -15 0 -15 -10 0 -9 -8 -16
-19 -16 -10 0 -47 -27 -82 -60 -58 -55 -64 -59 -71 -40 -12 32 -18 23 -7 -9
39 -110 177 -131 254 -38 l36 43 53 -10 c52 -10 54 -11 59 -47 7 -50 33 -86
79 -110 43 -22 46 -34 18 -89 -11 -22 -18 -40 -14 -40 3 0 -1 -7 -10 -15 -10
-10 -25 -14 -43 -10 l-28 5 28 -11 c16 -6 24 -15 20 -22 -4 -7 2 -5 12 3 17
14 18 14 6 -7 -6 -13 -17 -23 -24 -23 -8 0 -7 -3 2 -9 11 -7 7 -14 -20 -30
-19 -12 -40 -21 -46 -21 -7 0 -13 -7 -13 -15 0 -23 -39 -38 -86 -32 -24 2 -44
3 -44 0 0 -2 16 -11 35 -19 19 -8 35 -19 35 -25 0 -6 -12 -30 -26 -55 -22 -38
-30 -44 -59 -44 -28 0 -41 9 -87 63 -29 34 -65 79 -78 99 -14 21 -26 33 -28
28 -2 -5 6 -22 17 -36 11 -15 18 -30 15 -35 -3 -5 0 -8 7 -7 7 2 14 -3 15 -9
1 -7 2 -17 3 -23 0 -5 4 -9 9 -7 4 1 7 -1 7 -4 0 -3 5 -12 12 -20 9 -11 7 -14
-12 -14 -22 0 -23 1 -7 18 13 15 13 17 1 12 -10 -4 -20 3 -27 17 l-12 23 6
-24 c3 -13 7 -30 8 -37 1 -7 5 -17 9 -20 12 -12 8 -24 -8 -24 -8 0 -15 4 -15
8 0 5 -13 7 -29 4 -36 -5 -38 5 -33 122 3 56 7 84 13 75 5 -8 9 -9 9 -3 0 15
-39 49 -47 40 -4 -3 -1 -12 5 -18 7 -7 12 -41 12 -79 l0 -67 -41 -7 c-47 -8
-55 -22 -64 -117 -10 -100 -13 -108 -39 -108 -13 0 -42 -13 -64 -30 -23 -16
-49 -30 -57 -30 -9 0 -38 -11 -64 -25 -48 -24 -299 -100 -413 -126 l-58 -12 0
-159 0 -158 1125 0 1125 0 -1 90 c-1 76 -3 90 -17 90 -12 0 -13 -3 -4 -12 7
-7 12 -17 12 -24 0 -32 -258 67 -610 234 -81 38 -109 57 -122 80 -9 17 -32 38
-51 46 -33 13 -36 18 -42 73 -16 155 -16 154 -41 165 -15 7 -23 17 -19 26 3 7
5 19 5 24 0 6 3 8 7 5 4 -4 12 5 18 20 21 49 86 144 103 151 19 7 95 62 129
93 13 12 28 38 34 60 14 44 22 48 35 18 7 -15 9 1 6 52 l-4 74 38 -36 c44 -41
123 -93 131 -85 3 2 -7 22 -21 43 -36 52 -33 59 11 26 l37 -28 -26 35 c-24 33
-68 113 -68 125 0 3 19 -4 43 -16 30 -16 64 -23 122 -26 55 -2 72 0 54 6 -30
10 -130 73 -124 79 2 2 12 -1 22 -6 10 -5 45 -12 78 -16 45 -4 54 -3 36 4 -30
13 -123 91 -117 98 3 2 28 -5 55 -17 57 -24 90 -28 46 -5 -36 18 -73 52 -126
115 l-38 46 117 -4 c69 -3 127 -1 142 5 24 10 23 11 -11 11 -42 1 -159 58
-211 102 l-33 28 66 -6 c37 -3 88 -2 115 2 l49 8 -46 8 c-25 4 -66 16 -90 27
l-44 20 40 2 c22 1 56 7 75 14 l35 13 -55 7 c-30 4 -69 9 -86 11 -32 3 -109
39 -176 81 -41 26 -45 23 -23 -16 25 -44 16 -40 -42 22 -32 33 -77 73 -100 89
l-42 30 17 -31 c9 -16 21 -30 25 -30 5 0 5 -5 2 -10 -4 -6 -26 9 -52 35 -50
49 -63 55 -63 27z m126 -429 c18 -60 16 -204 -3 -237 -6 -11 -8 3 -5 45 4 53
-3 118 -24 227 -9 47 16 19 32 -35z m-146 -199 c0 -16 -5 -24 -12 -21 -7 2
-28 -2 -45 -9 -18 -7 -33 -11 -33 -9 0 3 81 63 88 65 1 0 2 -12 2 -26z m-110
-10 c0 -11 -35 -79 -50 -96 -8 -10 -20 -18 -27 -18 -6 0 -14 -10 -16 -22 -3
-14 -5 -8 -6 16 -1 31 -4 37 -17 32 -9 -4 -25 -4 -36 0 -16 5 -13 10 23 36 60
43 129 71 129 52z m-383 -730 c-3 -3 -12 -4 -19 -1 -8 3 -5 6 6 6 11 1 17 -2
13 -5z"/>
<path d="M1688 2063 c7 -3 16 -2 19 1 4 3 -2 6 -13 5 -11 0 -14 -3 -6 -6z"/>
<path d="M1710 1970 c8 -5 20 -10 25 -10 6 0 3 5 -5 10 -8 5 -19 10 -25 10 -5
0 -3 -5 5 -10z"/>
<path d="M1047 1565 c-4 -8 -1 -17 6 -21 7 -4 9 -4 5 1 -4 4 -3 14 3 22 7 8 8
13 1 13 -5 0 -12 -7 -15 -15z"/>
<path d="M785 1419 c-4 -5 -4 -22 0 -37 l8 -27 7 25 c5 14 8 31 9 38 1 15 -15
16 -24 1z"/>
<path d="M721 1351 c-13 -39 -13 -48 3 -92 9 -27 14 -54 11 -59 -3 -6 -4 -10
0 -10 11 0 23 45 14 55 -4 6 -9 42 -11 80 l-3 70 -14 -44z"/>
<path d="M642 1280 c0 -19 2 -27 5 -17 2 9 2 25 0 35 -3 9 -5 1 -5 -18z"/>
<path d="M690 1241 c0 -6 4 -13 10 -16 6 -3 7 1 4 9 -7 18 -14 21 -14 7z"/>
<path d="M1152 1190 c-6 -22 -12 -47 -12 -55 0 -24 24 -17 41 11 13 21 14 33
5 55 -6 16 -13 29 -16 29 -3 0 -11 -18 -18 -40z"/>
<path d="M897 1043 c-11 -11 -8 -40 6 -51 8 -7 16 -6 24 3 9 10 9 16 2 20 -6
4 -8 13 -5 21 5 14 -15 20 -27 7z"/>
<path d="M1148 863 c7 -3 16 -2 19 1 4 3 -2 6 -13 5 -11 0 -14 -3 -6 -6z"/>
<path d="M846 768 c8 -27 12 -33 19 -27 7 8 -7 49 -17 49 -5 0 -6 -10 -2 -22z"/>
</g>
</svg>
